# xmcd CD database file
#
# Track frame offsets:
#	150
#	18589
#	36185
#	58664
#	79668
#	95604
#	110796
#	129895
#	150390
#	174942
#	198753
#
# Disc length: 2900 seconds
#
# Revision: 0
# Processed by: cddbd v1.5.2PL0 Copyright (c) Steve Scherf et al.
# Submitted via: CDex 1.51
#
DISCID=820b520b
DTITLE=Mari Persen - Mari Persen
DYEAR=2010
DGENRE=Jazz
TTITLE0=All In One
TTITLE1=Sweetheart
TTITLE2=Criminal
TTITLE3=Cool About
TTITLE4=Melody
TTITLE5=So
TTITLE6=Midnight
TTITLE7=Leo
TTITLE8=I'm Gonna Get You
TTITLE9=Bonnie Michelle
TTITLE10=Oh My Soul
EXTD=YEAR: 2010
EXTT0=
EXTT1=
EXTT2=
EXTT3=
EXTT4=
EXTT5=
EXTT6=
EXTT7=
EXTT8=
EXTT9=
EXTT10=
PLAYORDER=
